<mxfile host="app.diagrams.net" agent="Mozilla/5.0 (Windows NT 10.0; Win64; x64) AppleWebKit/537.36 (KHTML, like Gecko) Chrome/137.0.0.0 Safari/537.36 OPR/121.0.0.0" version="28.2.4">
  <diagram name="Page-1" id="XSFltz779k_Z6rLZp2xz">
    <mxGraphModel dx="2857" dy="1674" grid="1" gridSize="10" guides="1" tooltips="1" connect="1" arrows="1" fold="1" page="1" pageScale="1" pageWidth="850" pageHeight="1100" math="0" shadow="0">
      <root>
        <mxCell id="0" />
        <mxCell id="1" parent="0" />
        <mxCell id="9qA7VA4T6E_O9iF9voG0-1" value="NguoiDung&lt;div&gt;&lt;br&gt;&lt;/div&gt;" style="shape=umlActor;verticalLabelPosition=bottom;verticalAlign=top;html=1;outlineConnect=0;" vertex="1" parent="1">
          <mxGeometry x="130" y="50" width="30" height="60" as="geometry" />
        </mxCell>
        <mxCell id="9qA7VA4T6E_O9iF9voG0-2" value="" style="shape=umlLifeline;perimeter=lifelinePerimeter;whiteSpace=wrap;html=1;container=1;dropTarget=0;collapsible=0;recursiveResize=0;outlineConnect=0;portConstraint=eastwest;newEdgeStyle={&quot;curved&quot;:0,&quot;rounded&quot;:0};participant=umlBoundary;size=40;" vertex="1" parent="1">
          <mxGeometry x="300" y="50" width="50" height="100" as="geometry" />
        </mxCell>
        <mxCell id="9qA7VA4T6E_O9iF9voG0-3" value="GD_TrangChu" style="text;html=1;align=center;verticalAlign=middle;whiteSpace=wrap;rounded=0;" vertex="1" parent="1">
          <mxGeometry x="295" y="20" width="60" height="30" as="geometry" />
        </mxCell>
        <mxCell id="9qA7VA4T6E_O9iF9voG0-4" value="" style="html=1;points=[[0,0,0,0,5],[0,1,0,0,-5],[1,0,0,0,5],[1,1,0,0,-5]];perimeter=orthogonalPerimeter;outlineConnect=0;targetShapes=umlLifeline;portConstraint=eastwest;newEdgeStyle={&quot;curved&quot;:0,&quot;rounded&quot;:0};" vertex="1" parent="1">
          <mxGeometry x="140" y="150" width="10" height="650" as="geometry" />
        </mxCell>
        <mxCell id="9qA7VA4T6E_O9iF9voG0-5" value="" style="html=1;points=[[0,0,0,0,5],[0,1,0,0,-5],[1,0,0,0,5],[1,1,0,0,-5]];perimeter=orthogonalPerimeter;outlineConnect=0;targetShapes=umlLifeline;portConstraint=eastwest;newEdgeStyle={&quot;curved&quot;:0,&quot;rounded&quot;:0};" vertex="1" parent="1">
          <mxGeometry x="320" y="150" width="10" height="120" as="geometry" />
        </mxCell>
        <mxCell id="9qA7VA4T6E_O9iF9voG0-6" value="" style="endArrow=classic;html=1;rounded=0;" edge="1" parent="1" target="9qA7VA4T6E_O9iF9voG0-5">
          <mxGeometry width="50" height="50" relative="1" as="geometry">
            <mxPoint x="150" y="209.5" as="sourcePoint" />
            <mxPoint x="320" y="209.5" as="targetPoint" />
          </mxGeometry>
        </mxCell>
        <mxCell id="9qA7VA4T6E_O9iF9voG0-7" value="1. Chọn bài nhạc" style="text;html=1;align=center;verticalAlign=middle;whiteSpace=wrap;rounded=0;" vertex="1" parent="1">
          <mxGeometry x="185" y="180" width="110" height="30" as="geometry" />
        </mxCell>
        <mxCell id="9qA7VA4T6E_O9iF9voG0-8" value="" style="shape=umlLifeline;perimeter=lifelinePerimeter;whiteSpace=wrap;html=1;container=1;dropTarget=0;collapsible=0;recursiveResize=0;outlineConnect=0;portConstraint=eastwest;newEdgeStyle={&quot;curved&quot;:0,&quot;rounded&quot;:0};participant=umlEntity;" vertex="1" parent="1">
          <mxGeometry x="1480" y="50" width="40" height="120" as="geometry" />
        </mxCell>
        <mxCell id="9qA7VA4T6E_O9iF9voG0-9" value="" style="shape=umlLifeline;perimeter=lifelinePerimeter;whiteSpace=wrap;html=1;container=1;dropTarget=0;collapsible=0;recursiveResize=0;outlineConnect=0;portConstraint=eastwest;newEdgeStyle={&quot;curved&quot;:0,&quot;rounded&quot;:0};participant=umlEntity;" vertex="1" parent="1">
          <mxGeometry x="1620" y="50" width="40" height="370" as="geometry" />
        </mxCell>
        <mxCell id="9qA7VA4T6E_O9iF9voG0-45" value="" style="html=1;points=[[0,0,0,0,5],[0,1,0,0,-5],[1,0,0,0,5],[1,1,0,0,-5]];perimeter=orthogonalPerimeter;outlineConnect=0;targetShapes=umlLifeline;portConstraint=eastwest;newEdgeStyle={&quot;curved&quot;:0,&quot;rounded&quot;:0};" vertex="1" parent="9qA7VA4T6E_O9iF9voG0-9">
          <mxGeometry x="15" y="335" width="10" height="255" as="geometry" />
        </mxCell>
        <mxCell id="9qA7VA4T6E_O9iF9voG0-10" value="E_TrackDetails" style="text;html=1;align=center;verticalAlign=middle;whiteSpace=wrap;rounded=0;" vertex="1" parent="1">
          <mxGeometry x="1470" y="20" width="60" height="30" as="geometry" />
        </mxCell>
        <mxCell id="9qA7VA4T6E_O9iF9voG0-11" value="E_Playlists" style="text;html=1;align=center;verticalAlign=middle;whiteSpace=wrap;rounded=0;" vertex="1" parent="1">
          <mxGeometry x="1610" y="20" width="60" height="30" as="geometry" />
        </mxCell>
        <mxCell id="9qA7VA4T6E_O9iF9voG0-12" value="" style="shape=umlLifeline;perimeter=lifelinePerimeter;whiteSpace=wrap;html=1;container=1;dropTarget=0;collapsible=0;recursiveResize=0;outlineConnect=0;portConstraint=eastwest;newEdgeStyle={&quot;curved&quot;:0,&quot;rounded&quot;:0};participant=umlControl;" vertex="1" parent="1">
          <mxGeometry x="1210" y="50" width="40" height="320" as="geometry" />
        </mxCell>
        <mxCell id="9qA7VA4T6E_O9iF9voG0-13" value="" style="html=1;points=[[0,0,0,0,5],[0,1,0,0,-5],[1,0,0,0,5],[1,1,0,0,-5]];perimeter=orthogonalPerimeter;outlineConnect=0;targetShapes=umlLifeline;portConstraint=eastwest;newEdgeStyle={&quot;curved&quot;:0,&quot;rounded&quot;:0};" vertex="1" parent="9qA7VA4T6E_O9iF9voG0-12">
          <mxGeometry x="15" y="100" width="10" height="220" as="geometry" />
        </mxCell>
        <mxCell id="9qA7VA4T6E_O9iF9voG0-14" value="" style="shape=umlLifeline;perimeter=lifelinePerimeter;whiteSpace=wrap;html=1;container=1;dropTarget=0;collapsible=0;recursiveResize=0;outlineConnect=0;portConstraint=eastwest;newEdgeStyle={&quot;curved&quot;:0,&quot;rounded&quot;:0};participant=umlControl;" vertex="1" parent="1">
          <mxGeometry x="1390" y="50" width="40" height="610" as="geometry" />
        </mxCell>
        <mxCell id="9qA7VA4T6E_O9iF9voG0-15" value="" style="html=1;points=[[0,0,0,0,5],[0,1,0,0,-5],[1,0,0,0,5],[1,1,0,0,-5]];perimeter=orthogonalPerimeter;outlineConnect=0;targetShapes=umlLifeline;portConstraint=eastwest;newEdgeStyle={&quot;curved&quot;:0,&quot;rounded&quot;:0};" vertex="1" parent="9qA7VA4T6E_O9iF9voG0-14">
          <mxGeometry x="15" y="300" width="10" height="310" as="geometry" />
        </mxCell>
        <mxCell id="9qA7VA4T6E_O9iF9voG0-16" value="Ctr_TrackDetails" style="text;html=1;align=center;verticalAlign=middle;whiteSpace=wrap;rounded=0;" vertex="1" parent="1">
          <mxGeometry x="1190" y="20" width="60" height="30" as="geometry" />
        </mxCell>
        <mxCell id="9qA7VA4T6E_O9iF9voG0-19" value="Ctr_Playlists" style="text;html=1;align=center;verticalAlign=middle;whiteSpace=wrap;rounded=0;" vertex="1" parent="1">
          <mxGeometry x="1370" y="20" width="60" height="30" as="geometry" />
        </mxCell>
        <mxCell id="9qA7VA4T6E_O9iF9voG0-22" value="" style="shape=umlLifeline;perimeter=lifelinePerimeter;whiteSpace=wrap;html=1;container=1;dropTarget=0;collapsible=0;recursiveResize=0;outlineConnect=0;portConstraint=eastwest;newEdgeStyle={&quot;curved&quot;:0,&quot;rounded&quot;:0};participant=umlBoundary;size=40;" vertex="1" parent="1">
          <mxGeometry x="520" y="50" width="50" height="210" as="geometry" />
        </mxCell>
        <mxCell id="9qA7VA4T6E_O9iF9voG0-24" value="GD_ChiTietBaiNhac" style="text;html=1;align=center;verticalAlign=middle;whiteSpace=wrap;rounded=0;" vertex="1" parent="1">
          <mxGeometry x="515" y="20" width="60" height="30" as="geometry" />
        </mxCell>
        <mxCell id="9qA7VA4T6E_O9iF9voG0-25" value="" style="shape=umlLifeline;perimeter=lifelinePerimeter;whiteSpace=wrap;html=1;container=1;dropTarget=0;collapsible=0;recursiveResize=0;outlineConnect=0;portConstraint=eastwest;newEdgeStyle={&quot;curved&quot;:0,&quot;rounded&quot;:0};participant=umlBoundary;size=40;" vertex="1" parent="1">
          <mxGeometry x="765" y="50" width="50" height="380" as="geometry" />
        </mxCell>
        <mxCell id="9qA7VA4T6E_O9iF9voG0-27" value="GD_Album" style="text;html=1;align=center;verticalAlign=middle;whiteSpace=wrap;rounded=0;" vertex="1" parent="1">
          <mxGeometry x="760" y="20" width="60" height="30" as="geometry" />
        </mxCell>
        <mxCell id="9qA7VA4T6E_O9iF9voG0-28" value="" style="shape=umlLifeline;perimeter=lifelinePerimeter;whiteSpace=wrap;html=1;container=1;dropTarget=0;collapsible=0;recursiveResize=0;outlineConnect=0;portConstraint=eastwest;newEdgeStyle={&quot;curved&quot;:0,&quot;rounded&quot;:0};participant=umlBoundary;size=40;" vertex="1" parent="1">
          <mxGeometry x="945" y="50" width="50" height="470" as="geometry" />
        </mxCell>
        <mxCell id="9qA7VA4T6E_O9iF9voG0-30" value="GD_XacNhan" style="text;html=1;align=center;verticalAlign=middle;whiteSpace=wrap;rounded=0;" vertex="1" parent="1">
          <mxGeometry x="940" y="20" width="60" height="30" as="geometry" />
        </mxCell>
        <mxCell id="9qA7VA4T6E_O9iF9voG0-31" value="" style="endArrow=classic;html=1;rounded=0;" edge="1" parent="1">
          <mxGeometry width="50" height="50" relative="1" as="geometry">
            <mxPoint x="330" y="220.0000000000001" as="sourcePoint" />
            <mxPoint x="1225" y="220.0000000000001" as="targetPoint" />
          </mxGeometry>
        </mxCell>
        <mxCell id="9qA7VA4T6E_O9iF9voG0-32" value="1.1 Lấy thông tin chi tiết về bài hát" style="text;html=1;align=center;verticalAlign=middle;whiteSpace=wrap;rounded=0;" vertex="1" parent="1">
          <mxGeometry x="550" y="180" width="220" height="30" as="geometry" />
        </mxCell>
        <mxCell id="9qA7VA4T6E_O9iF9voG0-33" value="" style="html=1;points=[[0,0,0,0,5],[0,1,0,0,-5],[1,0,0,0,5],[1,1,0,0,-5]];perimeter=orthogonalPerimeter;outlineConnect=0;targetShapes=umlLifeline;portConstraint=eastwest;newEdgeStyle={&quot;curved&quot;:0,&quot;rounded&quot;:0};" vertex="1" parent="1">
          <mxGeometry x="1495" y="170" width="10" height="150" as="geometry" />
        </mxCell>
        <mxCell id="9qA7VA4T6E_O9iF9voG0-34" value="" style="endArrow=classic;html=1;rounded=0;" edge="1" parent="1">
          <mxGeometry width="50" height="50" relative="1" as="geometry">
            <mxPoint x="1234.9999999999998" y="240" as="sourcePoint" />
            <mxPoint x="1495" y="240" as="targetPoint" />
            <Array as="points">
              <mxPoint x="1280" y="240" />
            </Array>
          </mxGeometry>
        </mxCell>
        <mxCell id="9qA7VA4T6E_O9iF9voG0-35" value="" style="endArrow=classic;html=1;rounded=0;dashed=1;" edge="1" parent="1">
          <mxGeometry width="50" height="50" relative="1" as="geometry">
            <mxPoint x="1495" y="300" as="sourcePoint" />
            <mxPoint x="1234.9999999999998" y="300" as="targetPoint" />
          </mxGeometry>
        </mxCell>
        <mxCell id="9qA7VA4T6E_O9iF9voG0-36" value="1.2.1. Get(TrackDetails)" style="text;html=1;align=center;verticalAlign=middle;whiteSpace=wrap;rounded=0;" vertex="1" parent="1">
          <mxGeometry x="1230" y="210" width="180" height="30" as="geometry" />
        </mxCell>
        <mxCell id="9qA7VA4T6E_O9iF9voG0-37" value="1.2.2. Return(TrackDetails)" style="text;html=1;align=center;verticalAlign=middle;whiteSpace=wrap;rounded=0;" vertex="1" parent="1">
          <mxGeometry x="1230" y="270" width="180" height="30" as="geometry" />
        </mxCell>
        <mxCell id="9qA7VA4T6E_O9iF9voG0-38" value="" style="html=1;points=[[0,0,0,0,5],[0,1,0,0,-5],[1,0,0,0,5],[1,1,0,0,-5]];perimeter=orthogonalPerimeter;outlineConnect=0;targetShapes=umlLifeline;portConstraint=eastwest;newEdgeStyle={&quot;curved&quot;:0,&quot;rounded&quot;:0};" vertex="1" parent="1">
          <mxGeometry x="540" y="260" width="10" height="530" as="geometry" />
        </mxCell>
        <mxCell id="9qA7VA4T6E_O9iF9voG0-39" value="" style="endArrow=classic;html=1;rounded=0;" edge="1" parent="1">
          <mxGeometry width="50" height="50" relative="1" as="geometry">
            <mxPoint x="1225" y="320" as="sourcePoint" />
            <mxPoint x="550" y="320" as="targetPoint" />
          </mxGeometry>
        </mxCell>
        <mxCell id="9qA7VA4T6E_O9iF9voG0-40" value="2. Hiển thị chi tiết thông tin bài hát" style="text;html=1;align=center;verticalAlign=middle;whiteSpace=wrap;rounded=0;" vertex="1" parent="1">
          <mxGeometry x="550" y="290" width="220" height="30" as="geometry" />
        </mxCell>
        <mxCell id="9qA7VA4T6E_O9iF9voG0-41" value="" style="endArrow=classic;html=1;rounded=0;" edge="1" parent="1">
          <mxGeometry width="50" height="50" relative="1" as="geometry">
            <mxPoint x="150" y="360" as="sourcePoint" />
            <mxPoint x="540" y="360" as="targetPoint" />
          </mxGeometry>
        </mxCell>
        <mxCell id="9qA7VA4T6E_O9iF9voG0-42" value="3. Chọn thêm vào playlist" style="text;html=1;align=center;verticalAlign=middle;whiteSpace=wrap;rounded=0;" vertex="1" parent="1">
          <mxGeometry x="185" y="330" width="220" height="30" as="geometry" />
        </mxCell>
        <mxCell id="9qA7VA4T6E_O9iF9voG0-43" value="" style="endArrow=classic;html=1;rounded=0;" edge="1" parent="1">
          <mxGeometry width="50" height="50" relative="1" as="geometry">
            <mxPoint x="550" y="380" as="sourcePoint" />
            <mxPoint x="1405" y="380" as="targetPoint" />
          </mxGeometry>
        </mxCell>
        <mxCell id="9qA7VA4T6E_O9iF9voG0-44" value="3.1. Lấy thông tin về playlist" style="text;html=1;align=center;verticalAlign=middle;whiteSpace=wrap;rounded=0;" vertex="1" parent="1">
          <mxGeometry x="550" y="350" width="220" height="30" as="geometry" />
        </mxCell>
        <mxCell id="9qA7VA4T6E_O9iF9voG0-47" value="" style="endArrow=classic;html=1;rounded=0;" edge="1" parent="1" source="9qA7VA4T6E_O9iF9voG0-15" target="9qA7VA4T6E_O9iF9voG0-45">
          <mxGeometry width="50" height="50" relative="1" as="geometry">
            <mxPoint x="1430" y="510" as="sourcePoint" />
            <mxPoint x="1480" y="460" as="targetPoint" />
            <Array as="points">
              <mxPoint x="1580" y="430" />
            </Array>
          </mxGeometry>
        </mxCell>
        <mxCell id="9qA7VA4T6E_O9iF9voG0-48" value="" style="endArrow=classic;html=1;rounded=0;dashed=1;" edge="1" parent="1">
          <mxGeometry width="50" height="50" relative="1" as="geometry">
            <mxPoint x="1640" y="480" as="sourcePoint" />
            <mxPoint x="1420" y="480" as="targetPoint" />
          </mxGeometry>
        </mxCell>
        <mxCell id="9qA7VA4T6E_O9iF9voG0-50" value="3.2.1. Ge&lt;span style=&quot;color: rgba(0, 0, 0, 0); font-family: monospace; font-size: 0px; text-align: start; text-wrap-mode: nowrap;&quot;&gt;%3CmxGraphModel%3E%3Croot%3E%3CmxCell%20id%3D%220%22%2F%3E%3CmxCell%20id%3D%221%22%20parent%3D%220%22%2F%3E%3CmxCell%20id%3D%222%22%20value%3D%221.2.1.%20Get(TrackDetails)%22%20style%3D%22text%3Bhtml%3D1%3Balign%3Dcenter%3BverticalAlign%3Dmiddle%3BwhiteSpace%3Dwrap%3Brounded%3D0%3B%22%20vertex%3D%221%22%20parent%3D%221%22%3E%3CmxGeometry%20x%3D%221230%22%20y%3D%22210%22%20width%3D%22180%22%20height%3D%2230%22%20as%3D%22geometry%22%2F%3E%3C%2FmxCell%3E%3C%2Froot%3E%3C%2FmxGraphModel%3E&lt;/span&gt;t(Playlists)" style="text;html=1;align=center;verticalAlign=middle;whiteSpace=wrap;rounded=0;" vertex="1" parent="1">
          <mxGeometry x="1430" y="400" width="180" height="30" as="geometry" />
        </mxCell>
        <mxCell id="9qA7VA4T6E_O9iF9voG0-51" value="3.2.1. Return(Playlists)" style="text;html=1;align=center;verticalAlign=middle;whiteSpace=wrap;rounded=0;" vertex="1" parent="1">
          <mxGeometry x="1430" y="450" width="180" height="30" as="geometry" />
        </mxCell>
        <mxCell id="9qA7VA4T6E_O9iF9voG0-52" value="" style="html=1;points=[[0,0,0,0,5],[0,1,0,0,-5],[1,0,0,0,5],[1,1,0,0,-5]];perimeter=orthogonalPerimeter;outlineConnect=0;targetShapes=umlLifeline;portConstraint=eastwest;newEdgeStyle={&quot;curved&quot;:0,&quot;rounded&quot;:0};" vertex="1" parent="1">
          <mxGeometry x="785" y="430" width="10" height="150" as="geometry" />
        </mxCell>
        <mxCell id="9qA7VA4T6E_O9iF9voG0-53" value="" style="endArrow=classic;html=1;rounded=0;" edge="1" parent="1" source="9qA7VA4T6E_O9iF9voG0-15">
          <mxGeometry width="50" height="50" relative="1" as="geometry">
            <mxPoint x="1409.5000000000005" y="464.17" as="sourcePoint" />
            <mxPoint x="795" y="464.17" as="targetPoint" />
          </mxGeometry>
        </mxCell>
        <mxCell id="9qA7VA4T6E_O9iF9voG0-55" value="4. Hiển thị danh sách các playlist đang có" style="text;html=1;align=center;verticalAlign=middle;whiteSpace=wrap;rounded=0;" vertex="1" parent="1">
          <mxGeometry x="1070" y="430" width="260" height="30" as="geometry" />
        </mxCell>
        <mxCell id="9qA7VA4T6E_O9iF9voG0-56" value="" style="endArrow=classic;html=1;rounded=0;" edge="1" parent="1">
          <mxGeometry width="50" height="50" relative="1" as="geometry">
            <mxPoint x="150" y="478.67" as="sourcePoint" />
            <mxPoint x="785" y="478.67" as="targetPoint" />
          </mxGeometry>
        </mxCell>
        <mxCell id="9qA7VA4T6E_O9iF9voG0-57" value="5. Chọn playlist muốn thêm bài hát vào" style="text;html=1;align=center;verticalAlign=middle;whiteSpace=wrap;rounded=0;" vertex="1" parent="1">
          <mxGeometry x="215" y="450" width="220" height="30" as="geometry" />
        </mxCell>
        <mxCell id="9qA7VA4T6E_O9iF9voG0-58" value="" style="html=1;points=[[0,0,0,0,5],[0,1,0,0,-5],[1,0,0,0,5],[1,1,0,0,-5]];perimeter=orthogonalPerimeter;outlineConnect=0;targetShapes=umlLifeline;portConstraint=eastwest;newEdgeStyle={&quot;curved&quot;:0,&quot;rounded&quot;:0};" vertex="1" parent="1">
          <mxGeometry x="965" y="520" width="10" height="270" as="geometry" />
        </mxCell>
        <mxCell id="9qA7VA4T6E_O9iF9voG0-59" value="" style="endArrow=classic;html=1;rounded=0;" edge="1" parent="1">
          <mxGeometry width="50" height="50" relative="1" as="geometry">
            <mxPoint x="795" y="560" as="sourcePoint" />
            <mxPoint x="965" y="560" as="targetPoint" />
          </mxGeometry>
        </mxCell>
        <mxCell id="9qA7VA4T6E_O9iF9voG0-60" value="6. Hiện thị xác nhận" style="text;html=1;align=center;verticalAlign=middle;whiteSpace=wrap;rounded=0;" vertex="1" parent="1">
          <mxGeometry x="750" y="535" width="260" height="30" as="geometry" />
        </mxCell>
        <mxCell id="9qA7VA4T6E_O9iF9voG0-61" value="" style="endArrow=classic;html=1;rounded=0;entryX=0;entryY=1;entryDx=0;entryDy=-5;entryPerimeter=0;" edge="1" parent="1">
          <mxGeometry width="50" height="50" relative="1" as="geometry">
            <mxPoint x="150" y="620" as="sourcePoint" />
            <mxPoint x="965" y="620" as="targetPoint" />
          </mxGeometry>
        </mxCell>
        <mxCell id="9qA7VA4T6E_O9iF9voG0-62" value="7. Xác nhận" style="text;html=1;align=center;verticalAlign=middle;whiteSpace=wrap;rounded=0;" vertex="1" parent="1">
          <mxGeometry x="160" y="590" width="220" height="30" as="geometry" />
        </mxCell>
        <mxCell id="9qA7VA4T6E_O9iF9voG0-65" value="" style="endArrow=classic;html=1;rounded=0;" edge="1" parent="1">
          <mxGeometry width="50" height="50" relative="1" as="geometry">
            <mxPoint x="975" y="580" as="sourcePoint" />
            <mxPoint x="1405" y="580" as="targetPoint" />
          </mxGeometry>
        </mxCell>
        <mxCell id="9qA7VA4T6E_O9iF9voG0-66" value="8. Cập nhật playlist" style="text;html=1;align=center;verticalAlign=middle;whiteSpace=wrap;rounded=0;" vertex="1" parent="1">
          <mxGeometry x="1070" y="550" width="260" height="30" as="geometry" />
        </mxCell>
        <mxCell id="9qA7VA4T6E_O9iF9voG0-67" value="" style="endArrow=classic;html=1;rounded=0;entryX=0.5;entryY=0.922;entryDx=0;entryDy=0;entryPerimeter=0;" edge="1" parent="1" source="9qA7VA4T6E_O9iF9voG0-15" target="9qA7VA4T6E_O9iF9voG0-45">
          <mxGeometry width="50" height="50" relative="1" as="geometry">
            <mxPoint x="1410" y="620" as="sourcePoint" />
            <mxPoint x="1634.5" y="620" as="targetPoint" />
          </mxGeometry>
        </mxCell>
        <mxCell id="9qA7VA4T6E_O9iF9voG0-68" value="8.1. Update(Track, Playlist)" style="text;html=1;align=center;verticalAlign=middle;whiteSpace=wrap;rounded=0;" vertex="1" parent="1">
          <mxGeometry x="1390" y="590" width="260" height="30" as="geometry" />
        </mxCell>
        <mxCell id="9qA7VA4T6E_O9iF9voG0-69" value="" style="endArrow=classic;html=1;rounded=0;" edge="1" parent="1">
          <mxGeometry width="50" height="50" relative="1" as="geometry">
            <mxPoint x="1405" y="650" as="sourcePoint" />
            <mxPoint x="550" y="650" as="targetPoint" />
          </mxGeometry>
        </mxCell>
        <mxCell id="9qA7VA4T6E_O9iF9voG0-70" value="9. Hiển thị giao diện chi tiết bài hát" style="text;html=1;align=center;verticalAlign=middle;whiteSpace=wrap;rounded=0;" vertex="1" parent="1">
          <mxGeometry x="560" y="650" width="320" height="30" as="geometry" />
        </mxCell>
        <mxCell id="9qA7VA4T6E_O9iF9voG0-71" value="frame" style="shape=umlFrame;whiteSpace=wrap;html=1;pointerEvents=0;" vertex="1" parent="1">
          <mxGeometry x="60" y="680" width="1620" height="160" as="geometry" />
        </mxCell>
        <mxCell id="9qA7VA4T6E_O9iF9voG0-72" value="" style="endArrow=classic;html=1;rounded=0;" edge="1" parent="1">
          <mxGeometry width="50" height="50" relative="1" as="geometry">
            <mxPoint x="150" y="730" as="sourcePoint" />
            <mxPoint x="965" y="730" as="targetPoint" />
          </mxGeometry>
        </mxCell>
        <mxCell id="9qA7VA4T6E_O9iF9voG0-73" value="7.1 Hủy" style="text;html=1;align=center;verticalAlign=middle;whiteSpace=wrap;rounded=0;" vertex="1" parent="1">
          <mxGeometry x="160" y="700" width="220" height="30" as="geometry" />
        </mxCell>
        <mxCell id="9qA7VA4T6E_O9iF9voG0-74" value="" style="endArrow=classic;html=1;rounded=0;" edge="1" parent="1">
          <mxGeometry width="50" height="50" relative="1" as="geometry">
            <mxPoint x="965" y="780" as="sourcePoint" />
            <mxPoint x="550" y="780" as="targetPoint" />
          </mxGeometry>
        </mxCell>
        <mxCell id="9qA7VA4T6E_O9iF9voG0-75" value="7.2. Hiển thị giao diện chi tiết bài hát" style="text;html=1;align=center;verticalAlign=middle;whiteSpace=wrap;rounded=0;" vertex="1" parent="1">
          <mxGeometry x="600" y="750" width="220" height="30" as="geometry" />
        </mxCell>
      </root>
    </mxGraphModel>
  </diagram>
</mxfile>
